<svg width="1507" height="444" viewBox="0 0 1507 444" fill="none" xmlns="http://www.w3.org/2000/svg">
<path d="M297.961 336.509L356.411 370.249C374.391 380.629 380.551 403.619 370.171 421.589C359.791 439.569 336.811 445.729 318.831 435.349L260.381 401.609C242.401 391.229 236.241 368.239 246.621 350.269C256.991 332.289 279.981 326.139 297.961 336.509Z" fill="#FFCF00"/>
<path d="M187.891 138.03L414.831 269.05C432.811 279.43 438.971 302.42 428.591 320.39C418.211 338.37 395.221 344.53 377.251 334.15L150.311 203.13C132.331 192.75 126.171 169.76 136.551 151.79C146.931 133.81 169.921 127.65 187.891 138.03Z" fill="#FFCF00"/>
<path d="M209.491 15.5598L393.841 122C411.821 132.38 417.981 155.37 407.601 173.34C397.221 191.32 374.231 197.48 356.261 187.1L171.901 80.6598C153.921 70.2798 147.761 47.2898 158.141 29.3198C168.531 11.3398 191.511 5.17981 209.491 15.5598Z" fill="#FFCF00"/>
<path d="M209.491 15.5598C191.511 5.17981 168.531 11.3398 158.151 29.3198C147.771 47.2998 153.931 70.2798 171.911 80.6598L264.081 133.88L301.671 68.7798L209.491 15.5598Z" fill="#FFCF00"/>
<path d="M301.661 68.7795C319.641 79.1595 325.801 102.15 315.421 120.12C305.041 138.1 282.051 144.26 264.081 133.88C246.101 123.5 239.941 100.51 250.321 82.5395C260.701 64.5595 283.691 58.3995 301.661 68.7795Z" fill="#FFCF00"/>
<path d="M6.12076 216.27C14.4008 198.69 28.1007 185.98 43.3507 174.74C57.7807 164.1 73.6107 155.82 89.9507 148.61C93.6907 146.96 97.4008 145.2 101.211 143.68H101.201L101.361 143.62C103.441 142.8 105.551 142.06 107.711 141.45L129.711 133.94C129.711 133.94 125.031 143.45 121.351 157.6C119.861 163.44 118.371 169.29 116.911 175.14C116.491 176.81 115.151 177.3 113.891 177.97C109.251 180.43 104.491 182.69 100.011 185.42C89.0407 192.1 78.8508 199.71 72.9708 211.6C69.4508 218.72 68.9208 225.95 73.6208 232.95C80.1408 242.66 90.1308 247.17 100.801 249.51C118.971 253.49 137.501 253.12 155.881 250.86C170.151 249.1 184.311 246.54 198.391 243.51C217.341 239.44 236.021 234.36 254.531 228.72C272.751 223.17 290.761 216.93 308.621 210.25C332.601 201.27 356.281 191.54 379.711 181.2C400.721 171.92 421.421 161.97 441.901 151.59C458.271 143.3 474.391 134.51 490.311 125.37C509.221 114.52 527.701 103 545.881 90.9702C548.241 89.4102 547.401 88.3103 545.831 87.1803C543.371 85.4203 540.761 83.8703 538.291 82.1303C536.871 81.1203 534.411 80.3902 534.921 78.3502C535.391 76.4602 537.711 75.7302 539.531 74.9702C540.241 74.6802 541.081 74.6803 541.861 74.5603C547.491 73.7503 552.001 76.9602 556.761 78.9802C559.671 80.2202 561.861 80.1203 564.411 78.3203C576.381 69.9003 586.251 59.1103 597.061 49.3903C598.501 48.1003 598.711 46.6603 597.351 44.8903C591.461 37.2603 585.161 30.1302 576.751 25.1102C566.841 19.1902 557.031 13.1102 547.181 7.09022C546.191 6.48022 544.821 6.00026 545.031 4.56026C545.221 3.30026 546.461 2.82023 547.511 2.22023C550.581 0.460228 553.681 0.340231 556.941 1.66023C560.471 3.09023 564.061 4.36024 567.581 5.79024C583.471 12.2702 599.361 18.7503 615.211 25.3303C617.781 26.4003 619.561 25.9402 621.621 24.1502C627.081 19.4202 632.681 14.8402 638.331 10.3502C647.061 3.42023 656.961 -0.219733 668.201 0.0102673C671.031 0.0702673 672.011 1.42026 671.321 4.07026C668.841 13.6803 664.811 22.4702 657.101 29.0302C650.711 34.4702 644.131 39.7102 637.461 44.8002C635.851 46.0302 635.341 47.0902 635.521 48.9802C636.411 58.2002 638.561 67.2003 640.091 76.3103C642.071 88.1503 644.391 99.9402 646.641 111.73C647.431 115.87 646.021 119.14 643.291 122.18C641.441 124.25 640.451 124.1 639.541 121.52C636.881 113.96 633.901 106.5 631.501 98.8602C627.601 86.4702 622.521 74.8302 613.801 64.9202C611.331 62.1202 609.641 62.1003 606.911 64.0803C595.751 72.1203 584.541 80.1002 573.251 87.9602C570.951 89.5602 570.251 91.2903 570.691 93.9503C571.481 98.6403 572.031 103.36 572.681 108.07C573.181 111.73 571.261 114.41 568.961 116.84C567.481 118.39 565.961 118.98 564.921 116.18C563.411 112.12 561.761 108.12 560.081 104.13C559.391 102.49 558.801 100.99 556.621 103.21C552.861 107.05 548.751 110.55 544.741 114.13C524.371 132.33 502.931 149.18 480.561 164.87C464.431 176.18 447.921 186.88 431.081 197.1C413.021 208.06 394.581 218.35 375.741 227.86C349.851 240.92 323.471 252.94 296.371 263.37C279.561 269.84 262.651 275.98 245.461 281.35C227.611 286.93 209.581 291.78 191.281 295.77C166.071 301.27 140.731 305.25 114.881 306.07C97.3008 306.63 79.9707 305.78 62.7307 301.98C48.1707 298.78 34.6408 293.48 22.6908 284.52C10.1808 275.14 1.75076 263.07 0.240756 247.21C-0.779244 236.48 1.49076 226.12 6.12076 216.27Z" fill="#232E3D"/>
<path d="M441.801 416.67C453.761 405.34 464.561 393.01 473.221 378.97C481.451 365.63 487.211 351.56 487.751 336.11C487.871 318.57 481.951 305.05 478.601 298.82C470.301 283.74 457.671 272.81 443.931 263.02C441.511 261.29 440.541 259.47 440.241 256.61C439.191 246.51 438.871 236.31 436.151 226.42C435.131 222.7 434.491 218.87 433.631 214.86C434.511 215 434.941 214.96 435.251 215.13C460.011 228.07 483.141 243.27 500.501 265.6C511.401 279.62 519.641 294.89 519.721 312.99L519.751 313C519.941 317.33 519.501 321.74 518.791 325.83C518.801 326.07 518.771 326.33 518.681 326.64C518.641 326.8 518.601 326.96 518.561 327.12C517.651 331.88 516.401 336.11 515.371 339.19C515.381 339.21 515.391 339.23 515.401 339.25C515.211 339.74 515.021 340.23 514.841 340.73C514.071 342.9 513.511 344.22 513.491 344.26C512.781 346.13 512.041 347.99 511.191 349.8C499.911 373.99 482.991 393.46 461.291 408.84C453.181 414.58 446.081 417.82 438.811 419.11C440.361 417.85 441.131 417.31 441.801 416.67Z" fill="#232E3D"/>
<path d="M642.621 354.361H595.791V188.811H642.621V354.361ZM709.781 289.791H639.301V251.001H709.781V289.791ZM706.471 188.811H753.301V354.361H706.471V188.811Z" fill="#232E3D"/>
<path d="M824.721 356.491C814.471 356.491 805.801 354.751 798.701 351.291C791.611 347.821 786.201 343.091 782.501 337.101C778.791 331.111 776.941 324.411 776.941 317.001C776.941 309.121 778.951 302.301 782.971 296.541C786.991 290.791 793.181 286.371 801.541 283.301C809.891 280.231 820.701 278.691 833.941 278.691H864.211V302.101H840.091C832.841 302.101 827.751 303.281 824.841 305.651C821.921 308.021 820.461 311.171 820.461 315.111C820.461 319.051 821.961 322.201 824.951 324.571C827.941 326.941 832.051 328.121 837.251 328.121C842.131 328.121 846.591 326.901 850.611 324.451C854.631 322.011 857.591 318.261 859.481 313.221L865.631 329.781C863.261 338.611 858.651 345.271 851.801 349.761C844.941 354.241 835.911 356.491 824.721 356.491ZM862.561 354.361V330.471L859.491 324.561V280.571C859.491 273.481 857.321 268.001 852.991 264.131C848.651 260.271 841.761 258.341 832.301 258.341C826.151 258.341 819.921 259.331 813.621 261.301C807.311 263.271 801.951 265.991 797.541 269.461L782.401 238.951C789.651 234.221 798.361 230.551 808.531 227.951C818.701 225.351 828.831 224.051 838.921 224.051C859.731 224.051 875.851 228.821 887.291 238.361C898.721 247.901 904.441 262.841 904.441 283.181V354.371H862.561V354.361Z" fill="#232E3D"/>
<path d="M969.931 359.801L913.411 226.181H959.531L1001.15 329.771L969.931 359.801ZM952.431 402.371C945.651 402.371 938.831 401.311 931.971 399.181C925.111 397.051 919.551 394.251 915.301 390.781L930.911 359.331C933.591 361.691 936.701 363.551 940.251 364.891C943.801 366.231 947.301 366.901 950.771 366.901C955.651 366.901 959.521 365.801 962.361 363.591C965.201 361.381 967.641 357.911 969.691 353.181L975.601 338.281L979.151 333.791L1022.67 226.181H1065.48L1010.14 359.571C1005.72 370.601 1000.64 379.241 994.891 385.471C989.131 391.701 982.751 396.071 975.731 398.601C968.711 401.101 960.941 402.371 952.431 402.371Z" fill="#232E3D"/>
<path d="M1113.01 356.491C1102.76 356.491 1094.09 354.751 1086.99 351.291C1079.9 347.821 1074.49 343.091 1070.79 337.101C1067.08 331.111 1065.23 324.411 1065.23 317.001C1065.23 309.121 1067.24 302.301 1071.26 296.541C1075.28 290.791 1081.47 286.371 1089.83 283.301C1098.18 280.231 1108.99 278.691 1122.23 278.691H1152.5V302.101H1128.38C1121.13 302.101 1116.04 303.281 1113.13 305.651C1110.21 308.021 1108.75 311.171 1108.75 315.111C1108.75 319.051 1110.25 322.201 1113.24 324.571C1116.23 326.941 1120.33 328.121 1125.54 328.121C1130.43 328.121 1134.88 326.901 1138.9 324.451C1142.92 322.011 1145.88 318.261 1147.77 313.221L1153.92 329.781C1151.55 338.611 1146.94 345.271 1140.09 349.761C1133.24 354.241 1124.21 356.491 1113.01 356.491ZM1150.85 354.361V330.471L1147.78 324.561V280.571C1147.78 273.481 1145.61 268.001 1141.28 264.131C1136.94 260.271 1130.05 258.341 1120.59 258.341C1114.44 258.341 1108.21 259.331 1101.91 261.301C1095.6 263.271 1090.24 265.991 1085.83 269.461L1070.69 238.951C1077.94 234.221 1086.65 230.551 1096.82 227.951C1106.99 225.351 1117.12 224.051 1127.21 224.051C1148.02 224.051 1164.14 228.821 1175.57 238.361C1187 247.901 1192.72 262.841 1192.72 283.181V354.371H1150.85V354.361Z" fill="#232E3D"/>
<path d="M1261.54 356.491C1251.29 356.491 1242.62 354.751 1235.52 351.291C1228.43 347.821 1223.02 343.091 1219.32 337.101C1215.61 331.111 1213.76 324.411 1213.76 317.001C1213.76 309.121 1215.77 302.301 1219.79 296.541C1223.81 290.791 1230 286.371 1238.36 283.301C1246.71 280.231 1257.52 278.691 1270.76 278.691H1301.03V302.101H1276.91C1269.66 302.101 1264.57 303.281 1261.66 305.651C1258.74 308.021 1257.28 311.171 1257.28 315.111C1257.28 319.051 1258.78 322.201 1261.77 324.571C1264.76 326.941 1268.86 328.121 1274.07 328.121C1278.96 328.121 1283.41 326.901 1287.43 324.451C1291.45 322.011 1294.41 318.261 1296.3 313.221L1302.45 329.781C1300.08 338.611 1295.47 345.271 1288.62 349.761C1281.76 354.241 1272.73 356.491 1261.54 356.491ZM1299.38 354.361V330.471L1296.31 324.561V280.571C1296.31 273.481 1294.14 268.001 1289.81 264.131C1285.47 260.271 1278.58 258.341 1269.12 258.341C1262.97 258.341 1256.74 259.331 1250.44 261.301C1244.13 263.271 1238.77 265.991 1234.36 269.461L1219.22 238.951C1226.47 234.221 1235.18 230.551 1245.35 227.951C1255.52 225.351 1265.65 224.051 1275.74 224.051C1296.55 224.051 1312.67 228.821 1324.1 238.361C1335.53 247.901 1341.25 262.841 1341.25 283.181V354.371H1299.38V354.361Z" fill="#232E3D"/>
<path d="M1453.1 224.051C1463.03 224.051 1472.02 226.061 1480.06 230.081C1488.1 234.101 1494.45 240.291 1499.1 248.641C1503.75 257.001 1506.08 267.801 1506.08 281.041V354.361H1461.15V288.381C1461.15 279.241 1459.29 272.581 1455.59 268.401C1451.88 264.221 1446.72 262.131 1440.1 262.131C1435.37 262.131 1431.03 263.191 1427.09 265.321C1423.15 267.451 1420.07 270.721 1417.87 275.131C1415.66 279.551 1414.56 285.301 1414.56 292.391V354.351H1369.63V226.171H1412.44V262.591L1404.16 251.951C1409.05 242.651 1415.75 235.671 1424.26 231.021C1432.76 226.371 1442.38 224.051 1453.1 224.051Z" fill="#232E3D"/>
<path d="M1029.95 399.629V416.38C1029.95 418.027 1030.26 419.164 1030.88 419.79C1031.51 420.416 1032.61 420.729 1034.2 420.729H1037.36V423.693H1033.65C1031.21 423.693 1029.4 423.133 1028.22 422.013C1027.03 420.86 1026.44 418.983 1026.44 416.38V399.629H1022.68V396.714H1026.44V389.945H1029.95V396.714H1037.36V399.629H1029.95ZM1046.52 401.507C1047.28 399.827 1048.43 398.526 1049.98 397.604C1051.56 396.681 1053.49 396.22 1055.76 396.22V399.827H1054.82C1052.32 399.827 1050.31 400.502 1048.79 401.853C1047.28 403.204 1046.52 405.46 1046.52 408.623V423.693H1043.06V396.714H1046.52V401.507ZM1059.38 410.154C1059.38 407.387 1059.93 404.966 1061.01 402.891C1062.13 400.782 1063.67 399.168 1065.61 398.048C1067.59 396.895 1069.81 396.319 1072.28 396.319C1074.85 396.319 1077.06 396.912 1078.9 398.098C1080.78 399.284 1082.13 400.799 1082.95 402.644V396.714H1086.41V423.693H1082.95V417.714C1082.1 419.559 1080.73 421.091 1078.85 422.31C1077.01 423.496 1074.8 424.089 1072.23 424.089C1069.79 424.089 1067.59 423.512 1065.61 422.359C1063.67 421.206 1062.13 419.576 1061.01 417.467C1059.93 415.359 1059.38 412.921 1059.38 410.154ZM1082.95 410.204C1082.95 408.03 1082.51 406.119 1081.62 404.472C1080.73 402.825 1079.51 401.557 1077.96 400.667C1076.45 399.778 1074.77 399.333 1072.92 399.333C1071.01 399.333 1069.3 399.761 1067.78 400.618C1066.27 401.474 1065.07 402.726 1064.18 404.373C1063.32 405.987 1062.89 407.914 1062.89 410.154C1062.89 412.361 1063.32 414.305 1064.18 415.985C1065.07 417.632 1066.27 418.9 1067.78 419.79C1069.3 420.646 1071.01 421.074 1072.92 421.074C1074.77 421.074 1076.45 420.63 1077.96 419.74C1079.51 418.851 1080.73 417.583 1081.62 415.936C1082.51 414.289 1082.95 412.378 1082.95 410.204ZM1103.89 420.333L1112.99 396.714H1116.64L1105.82 423.693H1101.92L1091.1 396.714H1094.8L1103.89 420.333ZM1145.74 408.82C1145.74 410.006 1145.71 410.912 1145.64 411.538H1123.26C1123.36 413.58 1123.85 415.326 1124.74 416.776C1125.63 418.225 1126.8 419.329 1128.25 420.086C1129.7 420.811 1131.28 421.173 1132.99 421.173C1135.23 421.173 1137.11 420.63 1138.62 419.543C1140.17 418.456 1141.19 416.99 1141.69 415.145H1145.35C1144.69 417.78 1143.27 419.938 1141.1 421.618C1138.95 423.265 1136.25 424.089 1132.99 424.089C1130.46 424.089 1128.18 423.529 1126.17 422.409C1124.16 421.256 1122.58 419.642 1121.43 417.566C1120.31 415.458 1119.75 413.004 1119.75 410.204C1119.75 407.404 1120.31 404.95 1121.43 402.841C1122.55 400.733 1124.11 399.119 1126.12 397.999C1128.13 396.879 1130.42 396.319 1132.99 396.319C1135.56 396.319 1137.8 396.879 1139.71 397.999C1141.66 399.119 1143.14 400.634 1144.16 402.545C1145.21 404.422 1145.74 406.514 1145.74 408.82ZM1142.23 408.721C1142.27 406.712 1141.85 404.999 1141 403.582C1140.17 402.166 1139.04 401.095 1137.59 400.371C1136.14 399.646 1134.56 399.284 1132.84 399.284C1130.27 399.284 1128.08 400.107 1126.27 401.754C1124.46 403.401 1123.46 405.724 1123.26 408.721H1142.23ZM1155.53 387.128V423.693H1152.07V387.128H1155.53ZM1186.21 424.089C1183.11 424.089 1180.58 423.38 1178.6 421.964C1176.66 420.514 1175.57 418.554 1175.34 416.084H1178.9C1179.06 417.599 1179.77 418.834 1181.02 419.79C1182.31 420.712 1184.02 421.173 1186.16 421.173C1188.04 421.173 1189.5 420.729 1190.56 419.839C1191.64 418.95 1192.19 417.846 1192.19 416.529C1192.19 415.606 1191.89 414.849 1191.3 414.256C1190.71 413.663 1189.95 413.201 1189.03 412.872C1188.14 412.51 1186.92 412.131 1185.37 411.736C1183.36 411.208 1181.73 410.681 1180.48 410.154C1179.23 409.627 1178.15 408.853 1177.27 407.832C1176.41 406.778 1175.98 405.378 1175.98 403.632C1175.98 402.314 1176.38 401.095 1177.17 399.975C1177.96 398.855 1179.08 397.966 1180.53 397.307C1181.98 396.648 1183.62 396.319 1185.47 396.319C1188.37 396.319 1190.71 397.06 1192.48 398.542C1194.26 399.992 1195.22 402.001 1195.35 404.571H1191.89C1191.79 402.99 1191.17 401.721 1190.01 400.766C1188.89 399.778 1187.35 399.284 1185.37 399.284C1183.62 399.284 1182.21 399.695 1181.12 400.519C1180.03 401.342 1179.49 402.364 1179.49 403.582C1179.49 404.637 1179.8 405.51 1180.43 406.201C1181.09 406.86 1181.89 407.387 1182.85 407.783C1183.8 408.145 1185.09 408.557 1186.7 409.018C1188.65 409.545 1190.2 410.056 1191.35 410.55C1192.5 411.044 1193.49 411.768 1194.31 412.724C1195.14 413.679 1195.56 414.947 1195.6 416.529C1195.6 417.978 1195.2 419.279 1194.41 420.432C1193.62 421.552 1192.52 422.442 1191.1 423.1C1189.68 423.759 1188.05 424.089 1186.21 424.089ZM1213.92 424.089C1211.38 424.089 1209.09 423.529 1207.05 422.409C1205.04 421.256 1203.44 419.642 1202.26 417.566C1201.1 415.458 1200.53 413.004 1200.53 410.204C1200.53 407.404 1201.12 404.966 1202.31 402.891C1203.49 400.782 1205.11 399.168 1207.15 398.048C1209.19 396.895 1211.48 396.319 1214.02 396.319C1216.55 396.319 1218.84 396.895 1220.89 398.048C1222.96 399.168 1224.57 400.782 1225.73 402.891C1226.91 404.966 1227.51 407.404 1227.51 410.204C1227.51 412.971 1226.91 415.409 1225.73 417.517C1224.54 419.625 1222.91 421.256 1220.84 422.409C1218.76 423.529 1216.45 424.089 1213.92 424.089ZM1213.92 421.074C1215.7 421.074 1217.34 420.679 1218.86 419.889C1220.37 419.065 1221.59 417.846 1222.52 416.232C1223.47 414.585 1223.95 412.576 1223.95 410.204C1223.95 407.832 1223.49 405.839 1222.57 404.225C1221.64 402.578 1220.42 401.359 1218.91 400.568C1217.39 399.745 1215.75 399.333 1213.97 399.333C1212.19 399.333 1210.54 399.745 1209.03 400.568C1207.51 401.359 1206.29 402.578 1205.37 404.225C1204.48 405.839 1204.04 407.832 1204.04 410.204C1204.04 412.576 1204.48 414.585 1205.37 416.232C1206.29 417.846 1207.49 419.065 1208.98 419.889C1210.49 420.679 1212.14 421.074 1213.92 421.074ZM1237.27 387.128V423.693H1233.81V387.128H1237.27ZM1268.48 396.714V423.693H1265.02V418.95C1264.23 420.63 1263.01 421.915 1261.36 422.804C1259.71 423.693 1257.87 424.138 1255.83 424.138C1252.6 424.138 1249.96 423.15 1247.92 421.173C1245.88 419.164 1244.86 416.265 1244.86 412.477V396.714H1248.27V412.081C1248.27 415.013 1248.99 417.253 1250.44 418.802C1251.92 420.35 1253.93 421.124 1256.47 421.124C1259.07 421.124 1261.15 420.3 1262.69 418.653C1264.24 417.006 1265.02 414.585 1265.02 411.39V396.714H1268.48ZM1280.87 399.629V416.38C1280.87 418.027 1281.18 419.164 1281.81 419.79C1282.43 420.416 1283.54 420.729 1285.12 420.729H1288.28V423.693H1284.57C1282.14 423.693 1280.32 423.133 1279.14 422.013C1277.95 420.86 1277.36 418.983 1277.36 416.38V399.629H1273.6V396.714H1277.36V389.945H1280.87V396.714H1288.28V399.629H1280.87ZM1295.71 391.625C1295.02 391.625 1294.43 391.378 1293.94 390.883C1293.44 390.389 1293.19 389.78 1293.19 389.055C1293.19 388.33 1293.44 387.738 1293.94 387.276C1294.43 386.782 1295.02 386.535 1295.71 386.535C1296.41 386.535 1297 386.782 1297.49 387.276C1297.99 387.738 1298.23 388.33 1298.23 389.055C1298.23 389.78 1297.99 390.389 1297.49 390.883C1297 391.378 1296.41 391.625 1295.71 391.625ZM1297.44 396.714V423.693H1293.98V396.714H1297.44ZM1317.09 424.089C1314.55 424.089 1312.26 423.529 1310.22 422.409C1308.21 421.256 1306.61 419.642 1305.42 417.566C1304.27 415.458 1303.7 413.004 1303.7 410.204C1303.7 407.404 1304.29 404.966 1305.47 402.891C1306.66 400.782 1308.27 399.168 1310.32 398.048C1312.36 396.895 1314.65 396.319 1317.18 396.319C1319.72 396.319 1322.01 396.895 1324.05 398.048C1326.13 399.168 1327.74 400.782 1328.9 402.891C1330.08 404.966 1330.67 407.404 1330.67 410.204C1330.67 412.971 1330.08 415.409 1328.9 417.517C1327.71 419.625 1326.08 421.256 1324 422.409C1321.93 423.529 1319.62 424.089 1317.09 424.089ZM1317.09 421.074C1318.86 421.074 1320.51 420.679 1322.03 419.889C1323.54 419.065 1324.76 417.846 1325.68 416.232C1326.64 414.585 1327.12 412.576 1327.12 410.204C1327.12 407.832 1326.66 405.839 1325.73 404.225C1324.81 402.578 1323.59 401.359 1322.08 400.568C1320.56 399.745 1318.91 399.333 1317.14 399.333C1315.36 399.333 1313.71 399.745 1312.19 400.568C1310.68 401.359 1309.46 402.578 1308.54 404.225C1307.65 405.839 1307.2 407.832 1307.2 410.204C1307.2 412.576 1307.65 414.585 1308.54 416.232C1309.46 417.846 1310.66 419.065 1312.14 419.889C1313.66 420.679 1315.31 421.074 1317.09 421.074ZM1349.63 396.22C1352.86 396.22 1355.49 397.225 1357.54 399.234C1359.58 401.211 1360.6 404.093 1360.6 407.881V423.693H1357.19V408.277C1357.19 405.345 1356.45 403.105 1354.97 401.557C1353.52 400.008 1351.52 399.234 1348.99 399.234C1346.38 399.234 1344.31 400.058 1342.76 401.705C1341.21 403.352 1340.44 405.773 1340.44 408.968V423.693H1336.98V396.714H1340.44V401.309C1341.29 399.662 1342.53 398.411 1344.14 397.554C1345.76 396.665 1347.59 396.22 1349.63 396.22Z" fill="#232E3D"/>
</svg>
