<svg width="64" height="64" viewBox="0 0 64 64" fill="none" xmlns="http://www.w3.org/2000/svg">
<path d="M52.3073 20.031C50.3863 21.2066 48.7951 22.8504 47.6825 24.8085C46.57 26.7666 45.9724 28.975 45.9459 31.227C45.9535 33.7615 46.7044 36.238 48.1056 38.35C49.5068 40.4619 51.4968 42.1164 53.829 43.1085C52.9095 46.0752 51.5487 48.8867 49.7922 51.4482C47.279 55.066 44.6512 58.6837 40.6527 58.6837C36.6542 58.6837 35.626 56.3607 31.0179 56.3607C26.5238 56.3607 24.9249 58.76 21.2701 58.76C17.6154 58.76 15.0635 55.4087 12.1313 51.296C8.2576 45.5345 6.12868 38.7777 6 31.8362C6 20.4111 13.426 14.3567 20.7375 14.3567C24.622 14.3567 27.8584 16.9082 30.2954 16.9082C32.6184 16.9082 36.2361 14.2045 40.6537 14.2045C42.925 14.1457 45.1759 14.6464 47.2081 15.6625C49.2403 16.6785 50.9915 18.1788 52.3073 20.031ZM30.6008 13.557C30.3324 13.5562 30.0647 13.5307 29.801 13.481C29.7266 13.1303 29.6883 12.773 29.6868 12.4145C29.8139 9.46717 30.9577 6.65483 32.9238 4.45548C35.1305 1.92077 38.2235 0.32659 41.5683 0C41.6478 0.388386 41.6861 0.784072 41.6826 1.18049C41.6099 4.18673 40.5076 7.07693 38.5598 9.36798C37.5863 10.5692 36.3788 11.56 35.0106 12.2801C33.6424 13.0002 32.1421 13.4346 30.6008 13.557Z" fill="black"/>
</svg>
